<svg xmlns="http://www.w3.org/2000/svg" viewBox="0 0 44.78 44.6"><defs><style>.cls-1{fill:#40513b;}</style></defs><g id="Camada_2" data-name="Camada 2"><g id="Camada_1-2" data-name="Camada 1"><path class="cls-1" d="M25.13,44.6V27.38h5.25l.81-6.07H25.32a3,3,0,0,1,0-.34c0-1.28,0-2.57,0-3.85a2.1,2.1,0,0,1,2.1-2.32c.93-.09,1.87-.07,2.8-.09h1.28V9.1c-2.32-.09-4.63-.39-6.92.14a6.76,6.76,0,0,0-5.34,5.85A40.5,40.5,0,0,0,19,19.22c0,.72,0,1.43,0,2.21H13.79v6.06H19V44.57a22.62,22.62,0,1,1,6.15,0Z"/></g></g></svg>