<svg xmlns="http://www.w3.org/2000/svg" viewBox="0 0 44.6 44.6"><defs><style>.cls-1{fill:#40513b;}</style></defs><g id="Camada_2" data-name="Camada 2"><g id="Camada_1-2" data-name="Camada 1"><path class="cls-1" d="M44.6,22.3A22.3,22.3,0,1,1,22.33,0,22.33,22.33,0,0,1,44.6,22.3Zm-36.53,0H8c0,2.14,0,4.28,0,6.43a8.2,8.2,0,0,0,.11,1.48,7.57,7.57,0,0,0,7.49,6.36q6.66.08,13.31,0a7.57,7.57,0,0,0,7.63-7.72c0-4.35,0-8.7,0-13A8.67,8.67,0,0,0,36.07,13a7.59,7.59,0,0,0-7.26-5H16.13a12.25,12.25,0,0,0-1.48.09A7.5,7.5,0,0,0,8.1,14.94C8,17.38,8.07,19.82,8.07,22.27Z"/><path class="cls-1" d="M34.3,22.33c0,1.81,0,3.62,0,5.44a6.44,6.44,0,0,1-6.6,6.59H16.82A6.44,6.44,0,0,1,10.39,29a6.9,6.9,0,0,1-.09-1.21V16.84a6.4,6.4,0,0,1,6.62-6.59H27.81a6.4,6.4,0,0,1,6.41,5.38,7.5,7.5,0,0,1,.08,1.25C34.31,18.7,34.3,20.51,34.3,22.33Zm-12,7.73a7.78,7.78,0,1,0-7.88-7.79A7.84,7.84,0,0,0,22.28,30.06Zm8.19-17.4a2.22,2.22,0,1,0,2.22,2.19A2.23,2.23,0,0,0,30.47,12.66Z"/><path class="cls-1" d="M22.31,27.84A5.55,5.55,0,1,1,28,22.28,5.6,5.6,0,0,1,22.31,27.84Z"/></g></g></svg>