<svg xmlns="http://www.w3.org/2000/svg" viewBox="0 0 44.6 44.6"><defs><style>.cls-1{fill:#40513b;}</style></defs><g id="Camada_2" data-name="Camada 2"><g id="Camada_1-2" data-name="Camada 1"><path class="cls-1" d="M22.3,0h0A22.29,22.29,0,0,0,0,22.3H0A22.3,22.3,0,0,0,22.3,44.6h0A22.31,22.31,0,0,0,44.6,22.3h0A22.3,22.3,0,0,0,22.3,0ZM15.52,33.09c-1,0-2.09,0-3.14,0-.46,0-.62-.12-.61-.61,0-2.19,0-4.38,0-6.58s0-4.38,0-6.58c0-.48.16-.61.61-.6,1,0,2.1,0,3.14,0,.45,0,.64.13.64.6q0,6.59,0,13.17C16.16,33,16,33.1,15.52,33.09ZM14,16.54A2.46,2.46,0,0,1,11.5,14a2.5,2.5,0,1,1,5,0A2.46,2.46,0,0,1,14,16.54ZM32.47,33.09c-1,0-2.06,0-3.08,0-.49,0-.65-.14-.64-.64,0-2.29,0-4.59,0-6.88a9.33,9.33,0,0,0-.32-2,1.73,1.73,0,0,0-1.36-1.28c-1.66-.4-3.42.32-3.48,2.81s-.06,4.79-.08,7.18c0,.83,0,.83-.8.83-1,0-1.94,0-2.91,0-.43,0-.6-.14-.6-.58q0-6.61,0-13.23c0-.41.15-.57.56-.56q1.55,0,3.09,0c.39,0,.52.15.5.53s0,.88,0,1.33l.14,0c.1-.11.21-.21.3-.32a5.6,5.6,0,0,1,7.47-.94A4.65,4.65,0,0,1,32.94,23c.13,2.29.11,4.58.14,6.87,0,.87,0,1.74,0,2.61C33.11,32.91,33,33.11,32.47,33.09Z"/></g></g></svg>