<svg xmlns="http://www.w3.org/2000/svg" viewBox="0 0 76.59 81.56"><defs><style>.cls-1{fill:#edf1d6;}</style></defs><g id="Camada_2" data-name="Camada 2"><g id="Camada_1-2" data-name="Camada 1"><path class="cls-1" d="M8.87,56.41c.51-.06,7.55-.09,9.44,0a2.4,2.4,0,0,1,.28,0,1,1,0,0,1,.06.54c0,1.69,0,3.38,0,5.06a9.63,9.63,0,0,0,7.94,9.54,7.08,7.08,0,0,0,1.59.14H57.06a9.81,9.81,0,0,0,3.48-.61,9.66,9.66,0,0,0,6.09-7.34,11.43,11.43,0,0,0,.16-1.84V19.68a9.69,9.69,0,0,0-8.56-9.75,11.24,11.24,0,0,0-1.16,0H28.38A9.39,9.39,0,0,0,23,11.48a9.49,9.49,0,0,0-4.2,6.62,10.09,10.09,0,0,0-.1,1.55c0,1.33,0,2.67,0,4a1,1,0,0,1-.07.54,2,2,0,0,1-.27,0c-2.16.05-8.91,0-9.42,0a2.51,2.51,0,0,1,0-.27c0-1.75,0-3.51,0-5.26A18.74,18.74,0,0,1,11.9,9,19.17,19.17,0,0,1,24.28.42,18.41,18.41,0,0,1,28.34,0H57.07A19.47,19.47,0,0,1,76,14.78a20.11,20.11,0,0,1,.57,4.82V43.9q0,9.06,0,18.12a19,19,0,0,1-3,10.51A19.21,19.21,0,0,1,61.6,81.05a18.45,18.45,0,0,1-4.44.51H28.28a19.44,19.44,0,0,1-18.91-15,18.11,18.11,0,0,1-.52-4.39V56.92C8.85,56.76,8.86,56.6,8.87,56.41Z"/><path class="cls-1" d="M32.52,60c0-.29,0-.47,0-.64,0-3.62,0-7.24,0-10.86a1.65,1.65,0,0,0,0-.55l-.06,0H.13l-.08,0c0-.08,0-.17,0-.26V32.29a2.07,2.07,0,0,1,.3,0H31.81a2.15,2.15,0,0,0,.62,0,.73.73,0,0,0,.07-.48c0-1.17,0-2.33,0-3.5V21.41c.19-.05.28.07.37.15q1.8,1.34,3.58,2.69l21,15.84.42.33c0,.19-.18.24-.29.32l-8.71,6.72L33.18,59.52Z"/></g></g></svg>