<svg xmlns="http://www.w3.org/2000/svg" viewBox="0 0 20.49 28.5"><defs><style>.cls-1{fill:#40513b;}</style></defs><g id="Camada_2" data-name="Camada 2"><g id="Camada_1-2" data-name="Camada 1"><path class="cls-1" d="M5.29,16.49A9.44,9.44,0,0,1,4.05,3.41,9.26,9.26,0,0,1,20,12.32c-1.64,4.65-5.9,6.82-11.59,5.85L5.79,23c-.8,1.49-1.59,3-2.4,4.47A1.58,1.58,0,0,1,1,28.23a1.56,1.56,0,0,1-.69-2.42C1.83,23,3.37,20.12,4.89,17.27,5,17,5.16,16.74,5.29,16.49Zm6-14.35a7.13,7.13,0,1,0,7.05,7.11A7.11,7.11,0,0,0,11.3,2.14Z"/></g></g></svg>