<svg xmlns="http://www.w3.org/2000/svg" viewBox="0 0 44.62 44.6"><defs><style>.cls-1{fill:#40513b;}</style></defs><g id="Camada_2" data-name="Camada 2"><g id="Camada_1-2" data-name="Camada 1"><path class="cls-1" d="M0,22.61V22a.68.68,0,0,0,0-.14,17.67,17.67,0,0,1,.17-2.3c.1-.68.2-1.37.34-2A21.85,21.85,0,0,1,3.2,10.82,22.3,22.3,0,0,1,14.64,1.36,21.17,21.17,0,0,1,20.19.11c.67-.06,1.34-.1,2-.11a18.2,18.2,0,0,1,2.45.13c.64.08,1.28.16,1.91.28A21.33,21.33,0,0,1,30.85,1.7,22.37,22.37,0,0,1,42.91,13.77a21.93,21.93,0,0,1,1.6,6.53c.05.5.06,1,.08,1.52l0,.18v.59l0,.2c0,.58,0,1.17-.1,1.75-.09.73-.2,1.45-.33,2.17a21.43,21.43,0,0,1-2,5.76,22.19,22.19,0,0,1-5.81,7.14,21.72,21.72,0,0,1-6.49,3.67,20.74,20.74,0,0,1-5.2,1.18c-.74.07-1.48.12-2.22.13A15.8,15.8,0,0,1,20,44.46c-.71-.09-1.42-.18-2.13-.32a21.35,21.35,0,0,1-4.9-1.62A22.09,22.09,0,0,1,5,36.35,22.28,22.28,0,0,1,.1,24.3c0-.5,0-1-.08-1.51A1.1,1.1,0,0,0,0,22.61Zm18.86-11L17,11.66c-.56,0-1.11.05-1.67.1s-1.34.13-2,.22-1.19.17-1.78.28c-1,.17-1.92.4-2.86.66a2.39,2.39,0,0,0-1.26.74,2.22,2.22,0,0,0-.49,1.8,2,2,0,0,0,1.37,1.7,2.24,2.24,0,0,0,1.49,0,25,25,0,0,1,3.63-.79c.78-.11,1.58-.2,2.37-.27s1.4-.1,2.1-.12c1.17,0,2.35,0,3.53.06l2,.16c.73.08,1.46.17,2.18.28a33.76,33.76,0,0,1,3.57.74,25.53,25.53,0,0,1,4.7,1.67c.61.29,1.2.64,1.81.95a1.93,1.93,0,0,0,1.64.1,2.15,2.15,0,0,0,1.35-2.55A2.06,2.06,0,0,0,37.58,16c-.49-.28-1-.55-1.49-.8a29.16,29.16,0,0,0-5.27-2A41.91,41.91,0,0,0,24.92,12c-.68-.08-1.36-.15-2.05-.2s-1.35-.1-2-.13S19.61,11.62,18.86,11.61Zm-.07,11.32c.67,0,1.55.07,2.43.14.69.06,1.38.15,2.06.25a25.67,25.67,0,0,1,3.46.74A25.45,25.45,0,0,1,32,26.16c.37.21.74.42,1.11.61a1.53,1.53,0,0,0,1,.11,1.8,1.8,0,0,0,1.36-2.11,1.87,1.87,0,0,0-1-1.36A24.88,24.88,0,0,0,31,21.64a31.5,31.5,0,0,0-6.14-1.79c-1.07-.19-2.14-.34-3.21-.44-.59-.05-1.18-.09-1.76-.11s-1.44,0-2.15,0-1.62.07-2.42.13c-.47,0-.94.09-1.41.17-.65.1-1.3.21-1.94.35s-1.55.37-2.31.59a1.78,1.78,0,0,0-1.26,2.19,1.74,1.74,0,0,0,2.21,1.34,29.81,29.81,0,0,1,3.21-.74A27.49,27.49,0,0,1,16.71,23C17.33,23,18,23,18.79,22.93ZM19,26.58v0H17.57c-.28,0-.56,0-.84,0-.54.05-1.09.09-1.63.16s-1.19.13-1.78.23c-.87.15-1.74.32-2.6.49a1.87,1.87,0,0,0-.9.36,1.57,1.57,0,0,0-.4,1.76,1.36,1.36,0,0,0,1.4.86c.31,0,.6-.14.91-.2.5-.1,1-.2,1.5-.28s1.13-.18,1.7-.26,1-.1,1.42-.14,1.19-.1,1.79-.1c.79,0,1.59,0,2.38,0A14.17,14.17,0,0,1,22,29.7c.75.1,1.51.22,2.25.37A19.65,19.65,0,0,1,29.51,32c.4.22.79.46,1.2.67a1.4,1.4,0,0,0,1.75-.38A1.55,1.55,0,0,0,32.7,31,1.44,1.44,0,0,0,32,30a20.5,20.5,0,0,0-2.95-1.51,25,25,0,0,0-8.31-1.87C20.15,26.6,19.55,26.6,19,26.58Z"/></g></g></svg>