<svg xmlns="http://www.w3.org/2000/svg" viewBox="0 0 105.5 104.66"><defs><style>.cls-1{fill:#edf1d6;}</style></defs><g id="Camada_2" data-name="Camada 2"><g id="Camada_1-2" data-name="Camada 1"><path class="cls-1" d="M0,51.24v-.9c.12,0,.11-.09.11-.17,0-.36,0-.72.07-1.08.05-.69.1-1.38.18-2.06.1-.91.21-1.81.36-2.7.19-1.13.41-2.25.65-3.36a50.87,50.87,0,0,1,2-6.62c.53-1.41,1.1-2.8,1.75-4.16a52,52,0,0,1,2.54-4.71c.78-1.28,1.59-2.53,2.48-3.74s1.64-2.2,2.55-3.23c.64-.72,1.27-1.45,1.94-2.14.82-.86,1.67-1.68,2.53-2.49.54-.51,1.1-1,1.67-1.47,1-.78,1.93-1.54,2.92-2.28a44.5,44.5,0,0,1,5.42-3.47C28.21,6.08,29.3,5.53,30.39,5c.88-.43,1.79-.82,2.7-1.19,1.3-.53,2.62-1,4-1.42s2.54-.73,3.83-1a44.05,44.05,0,0,1,5-.89c.94-.11,1.88-.21,2.83-.3q.48,0,1-.06c.08,0,.16,0,.17-.12h.66a.16.16,0,0,0,.24,0h4.22a.16.16,0,0,0,.24,0h.66c0,.12.09.11.17.11l1.62.13c.65.06,1.31.1,2,.19.87.12,1.74.25,2.6.42,1.18.23,2.36.47,3.52.75A51.12,51.12,0,0,1,71,3.23c1.47.54,2.92,1.14,4.33,1.82.88.42,1.75.85,2.6,1.33,1.13.63,2.25,1.27,3.34,2A51.14,51.14,0,0,1,88.56,14c.8.74,1.57,1.53,2.33,2.31s1.32,1.41,2,2.14,1.17,1.39,1.73,2.11a43.46,43.46,0,0,1,2.87,4.13c.71,1.17,1.41,2.36,2,3.57.56,1,1.05,2.12,1.55,3.19s1,2.48,1.5,3.74a53.21,53.21,0,0,1,1.74,6.07c.19.84.34,1.7.5,2.56.1.54.17,1.08.25,1.63s.16,1.1.22,1.66.09,1.07.14,1.61c0,.08,0,.15.11.14v1a.29.29,0,0,0,0,.36V51.3h-.23a10.76,10.76,0,0,1-4.84-.56,24.75,24.75,0,0,1-3.06-1.39c-1-.52-2-1-3.08-1.51a11.3,11.3,0,0,0-4.83-1,10.7,10.7,0,0,0-1.87.2l2.07,4.36a.63.63,0,0,0,.14,0,9.17,9.17,0,0,1,4.06.52,19.57,19.57,0,0,1,2.86,1.33,34.83,34.83,0,0,0,3.18,1.58,10.75,10.75,0,0,0,5.6.8v1c-.1,0-.11.06-.11.14s0,.34,0,.51l-.24,2.12c-.14,0-.28,0-.42,0a8.18,8.18,0,0,1-3-.17,12.9,12.9,0,0,1-3-1.26c-1-.54-2-1.1-3-1.62a9.5,9.5,0,0,0-3.62-1c-.41,0-.83,0-1.23,0l.88,3.91c.53.07,1.06.11,1.58.21a9.74,9.74,0,0,1,3,1.19L98.57,62a9.2,9.2,0,0,0,5.89,1.39.55.55,0,0,1,0,.18c-.24,1-.48,2-.74,3-.08.34-.21.68-.32,1a5.58,5.58,0,0,1-2.26-.22,10.38,10.38,0,0,1-2.49-1.25c-.57-.36-1.13-.73-1.71-1.08a8.37,8.37,0,0,0-4-1.29h-.65l.05,3.43.42,0a6.21,6.21,0,0,1,2.21.52,12,12,0,0,1,1.94,1.11c.49.33,1,.68,1.5,1a6.59,6.59,0,0,0,2.35,1c.48.09,1,.11,1.47.16-.05.15-.07.31-.13.45-.35.87-.69,1.73-1,2.58-.17.38-.37.75-.55,1.13l-.5-.1a4.3,4.3,0,0,1-1.7-.8l-1.48-1.15A8.87,8.87,0,0,0,95.13,72,6.25,6.25,0,0,0,92,71.45l-.52,2.91a1.76,1.76,0,0,0,.23,0,4.81,4.81,0,0,1,2.86.78c.46.31.9.67,1.33,1s.78.67,1.18,1a4.06,4.06,0,0,0,2,.89,3.38,3.38,0,0,1-.18.44c-.51.86-1,1.73-1.55,2.59-.17.28-.37.54-.56.8a11.4,11.4,0,0,1-1-.7c-.55-.47-1.07-1-1.62-1.45a6.44,6.44,0,0,0-2.58-1.43c-.36-.09-.73-.14-1.12-.21.29-1,.61-2,.82-3h-.22a13,13,0,0,1-2.15-.26A13.67,13.67,0,0,1,82.8,71.7c-.18-.15-.31-.29-.22-.55a1,1,0,0,0,0-.24,6.22,6.22,0,0,0-.68-3,17,17,0,0,0-1.9-3c-.83-1.09-1.68-2.16-2.5-3.25A11.66,11.66,0,0,1,76,59.16a3.67,3.67,0,0,1-.33-1.33,11,11,0,0,1,.15-2.07A21.17,21.17,0,0,1,76.48,53a24.27,24.27,0,0,0,1.14-5.53,15.19,15.19,0,0,0-.17-3.69,17.15,17.15,0,0,0-4.83-9.11,7.45,7.45,0,0,0-1.39-1.11h-.11v-.06l0,.05.06,0a2.61,2.61,0,0,0,.19.27A24.81,24.81,0,0,1,74,38.06a16.55,16.55,0,0,1,1.7,6.07,15.23,15.23,0,0,1-.44,5c-.33,1.24-.71,2.47-1.08,3.7a16.73,16.73,0,0,0-.79,4.65,7.93,7.93,0,0,0,.07,1,7,7,0,0,0,.79,2.21,16.85,16.85,0,0,0,1.44,2.22c.76,1,1.54,2,2.3,3a13.77,13.77,0,0,1,1.67,2.78,6.22,6.22,0,0,1,.53,2,8.66,8.66,0,0,1-.58,3.6,29.09,29.09,0,0,1-1.78,3.79l-.21.4.18.18a17.36,17.36,0,0,0,6.11,3.87,9.84,9.84,0,0,0,3.26.68,1.52,1.52,0,0,0,1.73-1.09c.18-.42.36-.83.53-1.25l.12-.27h.28a4.29,4.29,0,0,1,2,.73,13.44,13.44,0,0,1,1.3,1.07c.66.59,1.29,1.2,1.93,1.81a1.33,1.33,0,0,1-.09.21c-.1.15-.22.29-.33.43l-1.86,2.3a2.59,2.59,0,0,1-.35.31l-.4-.45c-.45-.49-.88-1-1.34-1.46a6.24,6.24,0,0,0-1.82-1.32c-.27-.13-.55-.23-.83-.34L86.93,86c.32.16.64.29.93.46a4.75,4.75,0,0,1,1.34,1.1c.53.6,1,1.23,1.54,1.85a2.11,2.11,0,0,1-.19.23c-.36.37-.73.75-1.11,1.11l-1.61,1.49a.61.61,0,0,1-.2.09c-.07-.09-.15-.18-.22-.28a10.55,10.55,0,0,0-2.16-2.41c-.16-.12-.33-.22-.5-.34-.23.31-.45.59-.68.88s-.44.55-.67.84a5.76,5.76,0,0,1,1.33,1.27c.39.52.75,1.06,1.12,1.6-.25.2-.48.42-.74.61l-2.39,1.76c-.23.16-.48.28-.72.42-.1-.4-.18-.8-.3-1.19a11,11,0,0,0-1.55-3c-.68-1-1.39-1.94-2.09-2.92a17,17,0,0,1-1.77-3,7,7,0,0,1-.41-4.65,1.83,1.83,0,0,0,0-.19c-.06.09-.1.12-.12.16-.25.51-.53,1-.76,1.54A5.71,5.71,0,0,0,74.58,86,7.73,7.73,0,0,0,75,88.08a18,18,0,0,0,1.62,3.19c.56.93,1.13,1.85,1.67,2.79a10.91,10.91,0,0,1,1.16,2.67c.12.45.18.91.28,1.36l-.22.16-2.17,1.21c-.22.12-.45.21-.68.32-.07-.55-.12-1.1-.23-1.64a13.93,13.93,0,0,0-1.19-3.31c-.69-1.4-1.42-2.79-2.12-4.19a20.54,20.54,0,0,1-1.37-3.2,6.17,6.17,0,0,1,.07-4.11,14.08,14.08,0,0,1,1.27-2.62c.68-1.14,1.38-2.26,2.07-3.39a18.72,18.72,0,0,0,1.71-3.55,7.34,7.34,0,0,0-.51-6.14,18.35,18.35,0,0,0-1.27-2c-.75-1-1.55-2-2.32-3A15.56,15.56,0,0,1,71.18,60a6,6,0,0,1-.63-3A11.37,11.37,0,0,1,71,54.26c.34-1.07.7-2.14,1.08-3.2a21.22,21.22,0,0,0,1.32-5.73,15.16,15.16,0,0,0-.24-4A16.1,16.1,0,0,0,69.6,34a11.76,11.76,0,0,0-2.79-2.47,3.13,3.13,0,0,0-.32-.15l0,0v0h0a.84.84,0,0,0,.09.19c.42.56.86,1.11,1.28,1.68A16.21,16.21,0,0,1,71,41.35a15.72,15.72,0,0,1-.42,5.59,38.42,38.42,0,0,1-1.33,3.87,19.88,19.88,0,0,0-1.44,5.57,8,8,0,0,0,.43,3.56,10.76,10.76,0,0,0,1.41,2.55c.76,1,1.55,2,2.33,3a16.85,16.85,0,0,1,1.74,2.68,6.58,6.58,0,0,1,.41,5,13.05,13.05,0,0,1-1.44,3.1c-.7,1.15-1.44,2.27-2.16,3.41a18.49,18.49,0,0,0-1.75,3.36,7.46,7.46,0,0,0-.33,4.55,13.52,13.52,0,0,0,1.12,2.89c.62,1.2,1.27,2.39,1.91,3.58A30.19,30.19,0,0,1,72.92,97a12.6,12.6,0,0,1,.93,4.1l-.18.1-2.53,1c-.31.13-.64.22-1,.32A8.84,8.84,0,0,0,70,99.74,16.33,16.33,0,0,0,68.69,96c-.66-1.34-1.35-2.67-2-4a22.55,22.55,0,0,1-1.57-3.6,7.1,7.1,0,0,1-.37-2.46,7.5,7.5,0,0,1,.49-2.29,16.49,16.49,0,0,1,1.62-3.12c.73-1.15,1.49-2.29,2.22-3.44a15.59,15.59,0,0,0,1.7-3.48A7.45,7.45,0,0,0,71,69.78,8.43,8.43,0,0,0,69.84,67a28.36,28.36,0,0,0-2-2.71,27.65,27.65,0,0,1-1.92-2.63,8.16,8.16,0,0,1-1.25-3.36A10.4,10.4,0,0,1,64.84,55a19.38,19.38,0,0,1,1.26-3.79c.51-1.2,1.05-2.39,1.51-3.61a14.36,14.36,0,0,0,.8-7.78A15.27,15.27,0,0,0,63,30.49c-.19-.15-.38-.3-.58-.44a.25.25,0,0,0-.35,0,.26.26,0,0,0,0,.36l.39.5A16.45,16.45,0,0,1,65.2,36.1a17,17,0,0,1,.68,4.06,14.26,14.26,0,0,1-.08,2.77,15.74,15.74,0,0,1-1,3.7c-.58,1.41-1.21,2.8-1.81,4.2a20.4,20.4,0,0,0-1.51,4.63,10,10,0,0,0,.16,4.36,10.72,10.72,0,0,0,1.71,3.43c.69.94,1.42,1.85,2.13,2.78a11.83,11.83,0,0,1,1.3,2,6.93,6.93,0,0,1,.71,2.44A7.41,7.41,0,0,1,67,73.75,16.19,16.19,0,0,1,65.31,77c-.76,1.16-1.54,2.3-2.29,3.47A15.18,15.18,0,0,0,61.28,84a7.8,7.8,0,0,0-.34,3.74,12.15,12.15,0,0,0,1,3.07c.57,1.27,1.19,2.52,1.8,3.78a39.08,39.08,0,0,1,1.7,3.79,11.58,11.58,0,0,1,.79,4.23c0,.41-.07.82-.1,1.23l-.07.06-2.94.67c-.28.06-.57.08-.85.13a12.89,12.89,0,0,0,0-3.67,17.8,17.8,0,0,0-1.14-4.19c-.59-1.47-1.3-2.88-2-4.29a24.73,24.73,0,0,1-1.52-3.6,7.79,7.79,0,0,1-.37-2.49A7.39,7.39,0,0,1,57.72,84a16.53,16.53,0,0,1,1.76-3.39c.77-1.18,1.57-2.35,2.35-3.53a17.92,17.92,0,0,0,1.74-3.26A7,7,0,0,0,63,67.36c-.33-.53-.7-1-1.07-1.53-.58-.78-1.2-1.53-1.77-2.32a8.83,8.83,0,0,1-1.41-2.91c-.11-.41-.17-.83-.26-1.24a1.17,1.17,0,0,0-1.5-1c-.36.08-.72.19-1.07.29a10.76,10.76,0,0,1-2.5.5,9.59,9.59,0,0,1-3.37-.38c-.51-.15-1-.31-1.53-.42a1.17,1.17,0,0,0-1.45,1c0,.08,0,.16,0,.24a8.42,8.42,0,0,1-1,3,20.91,20.91,0,0,1-1.62,2.32c-.58.76-1.18,1.51-1.7,2.3A6.94,6.94,0,0,0,42,73.91a15.68,15.68,0,0,0,1.41,2.69c.76,1.18,1.55,2.34,2.32,3.51a20.9,20.9,0,0,1,1.88,3.36,7.84,7.84,0,0,1,.7,3.33,8.28,8.28,0,0,1-.52,2.56,30.32,30.32,0,0,1-1.56,3.55,48.37,48.37,0,0,0-2,4.41A15,15,0,0,0,43.22,103c0,.56.09,1.12.13,1.68a2.64,2.64,0,0,1-.29,0c-.74-.16-1.48-.3-2.22-.47-.46-.1-.9-.24-1.35-.35a2.83,2.83,0,0,0,0-.3,9.25,9.25,0,0,1,.11-3,15.62,15.62,0,0,1,1.2-3.65c.62-1.34,1.29-2.66,1.93-4a30.27,30.27,0,0,0,1.39-3.14A10,10,0,0,0,44.72,87a7.81,7.81,0,0,0-.45-3.14,15.81,15.81,0,0,0-1.72-3.44C41.81,79.3,41,78.17,40.29,77a15.75,15.75,0,0,1-1.74-3.36,6.92,6.92,0,0,1-.13-4.6,9.11,9.11,0,0,1,1.42-2.64c.53-.72,1.09-1.42,1.64-2.13a18.81,18.81,0,0,0,1.71-2.54,9.39,9.39,0,0,0,1.1-4.61,12.23,12.23,0,0,0-.56-3.34,35,35,0,0,0-1.57-4c-.62-1.39-1.25-2.78-1.74-4.23a13.31,13.31,0,0,1-.74-4.85c0-.53,0-1.06.1-1.59a15.32,15.32,0,0,1,1-4.21,17.29,17.29,0,0,1,2.58-4.36,1.2,1.2,0,0,0,.19-.27.32.32,0,0,0,0-.25.26.26,0,0,0-.23,0,.6.6,0,0,0-.26.14A15.16,15.16,0,0,0,37,41.94a13.8,13.8,0,0,0,1,5.57c.48,1.26,1,2.5,1.56,3.74A16.27,16.27,0,0,1,41,56.54a8.32,8.32,0,0,1-.19,2.54,8.47,8.47,0,0,1-1.39,3c-.71,1-1.48,2-2.24,2.95a18.28,18.28,0,0,0-1.79,2.64,7.32,7.32,0,0,0-.92,3.66,8.23,8.23,0,0,0,.62,2.9,18.85,18.85,0,0,0,1.79,3.38C37.57,78.7,38.32,79.82,39,81a13.69,13.69,0,0,1,1.49,3.11,6.62,6.62,0,0,1,.28,3.06,10.65,10.65,0,0,1-.74,2.47c-.49,1.19-1.09,2.33-1.69,3.46-.69,1.31-1.38,2.61-2,4a11.45,11.45,0,0,0-1,5.5.38.38,0,0,1-.15,0l-3.13-1.23c-.12,0-.24-.13-.36-.19.06-.53.08-1.06.17-1.59a12.72,12.72,0,0,1,1.21-3.58c.69-1.37,1.42-2.72,2.14-4.07a25,25,0,0,0,1.52-3.28A8.29,8.29,0,0,0,37.31,86a8.08,8.08,0,0,0-.63-3.14A19.38,19.38,0,0,0,35,79.66c-.71-1.11-1.43-2.21-2.12-3.33a13.28,13.28,0,0,1-1.43-3.08,6.8,6.8,0,0,1-.28-3A7.41,7.41,0,0,1,32,67.79a17,17,0,0,1,1.56-2.31c.76-1,1.52-2,2.26-2.94a11,11,0,0,0,1.39-2.46,8.52,8.52,0,0,0,.4-4.5,18.35,18.35,0,0,0-1-3.72c-.46-1.27-1-2.54-1.38-3.82a14.43,14.43,0,0,1-.83-4.6c0-.63,0-1.27.07-1.9a14.8,14.8,0,0,1,1.12-4.72,21.59,21.59,0,0,1,3.49-5.46v-.05h0l0,.05c-.07,0-.15,0-.2,0-.33.21-.67.41-1,.65a13.63,13.63,0,0,0-2.61,2.7,15.94,15.94,0,0,0-3.15,8.12,16.1,16.1,0,0,0,.5,5.61A35.55,35.55,0,0,0,33.85,52,18.37,18.37,0,0,1,35,56.41a6.44,6.44,0,0,1-.5,3.41,11.19,11.19,0,0,1-1.1,1.9c-.78,1.05-1.58,2.08-2.37,3.12A18.09,18.09,0,0,0,29,68.06a7.17,7.17,0,0,0-.73,2.87,7.87,7.87,0,0,0,.36,2.55,15.28,15.28,0,0,0,1.55,3.42c.67,1.13,1.37,2.24,2.06,3.36a20.42,20.42,0,0,1,1.38,2.67,6.4,6.4,0,0,1,.14,4.73,23.38,23.38,0,0,1-1.33,3c-.72,1.44-1.47,2.86-2.16,4.3a12.7,12.7,0,0,0-1.37,4.78,1.3,1.3,0,0,1-.25-.1l-2-1.1c-.25-.15-.49-.32-.74-.49a6.88,6.88,0,0,1,.4-1.84,15.7,15.7,0,0,1,1.5-3c.54-.9,1.1-1.8,1.64-2.7a13.24,13.24,0,0,0,1.26-2.73,6.4,6.4,0,0,0,.21-3.47,9.16,9.16,0,0,0-1.08-2.51l-.07,0s0,0,0,.07a.5.5,0,0,1,0,.12,6.77,6.77,0,0,1-.17,3.86,11.42,11.42,0,0,1-1.44,2.8c-.64,1-1.32,1.87-2,2.8a20.62,20.62,0,0,0-1.68,2.67,7.64,7.64,0,0,0-.84,2.63l-.13-.07c-1-.73-2.05-1.47-3.06-2.21-.23-.17-.44-.37-.65-.56A8.84,8.84,0,0,1,22.18,91l-1.35-1.71c-.2.14-.39.27-.57.41a10.63,10.63,0,0,0-2.11,2.38c-.07.09-.14.17-.2.26a3,3,0,0,1-.3-.18c-.46-.43-.92-.86-1.37-1.3l-1.4-1.36s0-.07-.05-.1l.23-.27c.52-.61,1-1.22,1.55-1.8a4.6,4.6,0,0,1,1.73-1.18l.34-.13-1.14-2.07a5.43,5.43,0,0,0-2,1.06,13,13,0,0,0-1.63,1.6c-.26.31-.53.6-.8.9a1.92,1.92,0,0,1-.22-.18c-.68-.84-1.37-1.68-2-2.53a4.61,4.61,0,0,1-.36-.54l1.44-1.32c.43-.4.84-.81,1.28-1.19a4.65,4.65,0,0,1,1.82-1,3.12,3.12,0,0,1,1-.14c0,.11.08.2.12.29.21.49.41,1,.63,1.46A1.35,1.35,0,0,0,18,83.2a5.42,5.42,0,0,0,.57,0,8.77,8.77,0,0,0,2.33-.41,17,17,0,0,0,5.94-3.29c.38-.32.75-.66,1.11-1-.32-.62-.63-1.21-.92-1.8a19.17,19.17,0,0,1-1.34-3.25,6.83,6.83,0,0,1,.62-5.6,21.16,21.16,0,0,1,1.31-2c.75-1,1.56-2,2.33-3.08a14.48,14.48,0,0,0,1.65-2.69,5.93,5.93,0,0,0,.57-2.23A13.5,13.5,0,0,0,32,55.16a28.35,28.35,0,0,0-.9-3.4,24.53,24.53,0,0,1-1.14-4.86,14.9,14.9,0,0,1,.11-4.11,17.33,17.33,0,0,1,1.77-5.19,25.63,25.63,0,0,1,2.55-3.9l.12-.15,0,0-.15.12a8.51,8.51,0,0,0-1.4,1.14,17,17,0,0,0-3.13,4.29,16.24,16.24,0,0,0-1.72,5.3,16.83,16.83,0,0,0,.2,5.3,29,29,0,0,0,.84,3.3,17.44,17.44,0,0,1,.85,4.3,4.32,4.32,0,0,1-.1,1.19A5,5,0,0,1,29.15,60c-.44.68-.9,1.35-1.38,2-.83,1.11-1.71,2.19-2.53,3.3a13.56,13.56,0,0,0-1.76,3A5.61,5.61,0,0,0,23,71.24a.41.41,0,0,1-.16.39A13.27,13.27,0,0,1,14.56,75l-.29,0,.84,3-.22,0c-.31.06-.62.1-.92.17a6.48,6.48,0,0,0-2.58,1.45c-.53.46-1,1-1.57,1.4-.31.27-.66.49-1,.73a2.52,2.52,0,0,1-.21-.25c-.49-.79-1-1.58-1.46-2.38-.23-.39-.44-.81-.65-1.21a3.79,3.79,0,0,0,1.84-.76c.38-.29.73-.6,1.09-.9s.94-.79,1.44-1.14a4.56,4.56,0,0,1,2.41-.85c.27,0,.54,0,.83,0l-.52-2.92-.3,0a6.2,6.2,0,0,0-3.9,1.2c-.47.34-.92.72-1.39,1.06a16.32,16.32,0,0,1-1.38,1,2.94,2.94,0,0,1-1.56.47,2.42,2.42,0,0,1-.25-.4C4.42,73.81,4,72.89,3.65,72c-.13-.31-.22-.64-.33-1a6.26,6.26,0,0,0,2.27-.38A10,10,0,0,0,7.7,69.47c.59-.4,1.18-.8,1.78-1.18a6.87,6.87,0,0,1,2.76-1c.33,0,.66-.06,1-.09V63.74H13a8.41,8.41,0,0,0-2.23.33A11.63,11.63,0,0,0,8,65.45c-.62.4-1.25.8-1.88,1.18A7.33,7.33,0,0,1,4,67.49a6.41,6.41,0,0,1-1.8.1c-.06-.19-.13-.37-.18-.56-.35-1.24-.66-2.48-.9-3.73l.23.05A8.66,8.66,0,0,0,4.61,63,14.32,14.32,0,0,0,7.44,61.7c.74-.43,1.48-.88,2.24-1.29a8.33,8.33,0,0,1,4-1.1l.09,0,.88-3.95a9.14,9.14,0,0,0-3.37.46A17.52,17.52,0,0,0,8.2,57.24c-.84.47-1.68.94-2.54,1.37a8.14,8.14,0,0,1-4.31.89l-.87-.09s0,0,0-.08c0-.45-.1-.91-.14-1.36,0-.27,0-.54-.07-.81,0-.5-.07-1-.1-1.52a10.57,10.57,0,0,0,4.4-.39A18.36,18.36,0,0,0,7.84,53.8c.85-.44,1.7-.9,2.56-1.32a10.13,10.13,0,0,1,5-1.11l.61,0A38.19,38.19,0,0,1,18.07,47c-.66-.06-1.25-.14-1.85-.16a11.43,11.43,0,0,0-4.48.8,34.06,34.06,0,0,0-3.29,1.56c-.82.42-1.64.84-2.49,1.21A10.6,10.6,0,0,1,0,51.24ZM38.21,24.31l-.15-.09a17.43,17.43,0,0,0-9.4-3.59h-.23c0,.05,0,.07,0,.09s.14.17.2.26a47.33,47.33,0,0,1,4.55,7c.37.71.7,1.45,1.06,2.17a.62.62,0,0,0,.91.34,2.75,2.75,0,0,0,.3-.14,39.54,39.54,0,0,1,34.62,0c.12.06.25.13.38.18a.62.62,0,0,0,.81-.32,2.14,2.14,0,0,0,.1-.22c.31-.63.61-1.27.93-1.9A48.3,48.3,0,0,1,77,20.92l.21-.31a17.78,17.78,0,0,0-9.85,3.72,39.15,39.15,0,0,1,4.34-8.77,19.08,19.08,0,0,0-12,5.36l-2.34-6.15c1.72-1.54,3.42-3,5.13-4.56v0l0,0-6.88-.48c-.94-2.17-1.85-4.31-2.8-6.49L50,9.66l-7,.49,5.22,4.61-2.35,6.15a19.34,19.34,0,0,0-12-5.38c0,.05,0,.06,0,.07l.16.26a39.15,39.15,0,0,1,3.57,6.78c.21.54.4,1.09.6,1.63Zm16.7,18.83c-.06-.16-.12-.3-.16-.44a9.7,9.7,0,0,1,0-5.72.75.75,0,0,1,.2-.33,4.66,4.66,0,0,1,1.65-1.19,7.51,7.51,0,0,1,5.83-.1c.13.06.29.17.42,0s.06-.3,0-.45c-.18-.42-.34-.86-.56-1.26a9,9,0,0,0-3.78-3.56,12.46,12.46,0,0,0-11.39,0A9.31,9.31,0,0,0,43.5,33.4a6.1,6.1,0,0,0-.77,1.73.31.31,0,0,0,0,.27c.05.05.18,0,.28,0s.05,0,.08,0A7.63,7.63,0,0,1,47.79,35a5.4,5.4,0,0,1,2.87,1.61,1,1,0,0,1,.25.44,9.55,9.55,0,0,1,.2,3.61,3.32,3.32,0,0,1-.32,1.14c-.2-.09-.39-.17-.57-.27a5.43,5.43,0,0,1-.51-.32A1.48,1.48,0,0,0,48.5,41c-.38.11-.75.23-1.13.33a3.57,3.57,0,0,1-2.86-.24,1.39,1.39,0,0,0-.44-.17,1.09,1.09,0,0,0-1.44.78,2.4,2.4,0,0,0-.13.59,9.07,9.07,0,0,0,.21,3.2,16.29,16.29,0,0,0,4,7.56,10.6,10.6,0,0,0,3.32,2.46,6.22,6.22,0,0,0,5.44,0,9.7,9.7,0,0,0,2.56-1.73A16.16,16.16,0,0,0,62.46,47a11.21,11.21,0,0,0,.66-4.29,3,3,0,0,0-.24-1.11,1.36,1.36,0,0,0-.79-.75.48.48,0,0,0-.5.07,3.16,3.16,0,0,1-1.86.61,4.47,4.47,0,0,1-1.88-.33,3.47,3.47,0,0,0-.57-.19.78.78,0,0,0-1,.44c-.12.21-.22.43-.33.65a5.11,5.11,0,0,1-.34.6A.89.89,0,0,1,54.91,43.14Zm49.15,3.92-.28-.31c-1.1-1.18-2.16-2.4-3.16-3.67a34.48,34.48,0,0,1-4-6.25,20,20,0,0,1-2.21-10.5.93.93,0,0,0,0-.24.44.44,0,0,0-.63-.32,1.09,1.09,0,0,0-.23.14c-.33.26-.68.51-1,.79a13.76,13.76,0,0,0-4.32,7.55c0,.2-.09.4-.14.63a14.62,14.62,0,0,0-6.12-2.2,12.31,12.31,0,0,0-6.42.89A39.84,39.84,0,0,1,85.65,43.91l.31-.1a9.86,9.86,0,0,1,4.35-.36,13.8,13.8,0,0,1,3.61,1c1.21.51,2.42,1.07,3.63,1.61a13.16,13.16,0,0,0,4,1.21A6.47,6.47,0,0,0,104.06,47.06ZM20,43.87A39.72,39.72,0,0,1,30.09,33.55a12.35,12.35,0,0,0-3.8-.93,14.25,14.25,0,0,0-8.72,2.23l-.05,0a.23.23,0,0,1,0-.11,14.78,14.78,0,0,0-1-3.39A13.17,13.17,0,0,0,12.17,26a2,2,0,0,0-.3-.2.45.45,0,0,0-.66.39,1.22,1.22,0,0,0,0,.27c0,.35,0,.7,0,1.05A19.56,19.56,0,0,1,10,34.38a29.3,29.3,0,0,1-3.72,6.9A53.44,53.44,0,0,1,1.76,46.8l-.22.26A6.68,6.68,0,0,0,4,47.3a9.21,9.21,0,0,0,2.73-.69c1.2-.49,2.38-1,3.56-1.55a20,20,0,0,1,4.31-1.5,9.26,9.26,0,0,1,3.44-.1C18.67,43.56,19.3,43.72,20,43.87Zm28.92-5a1,1,0,0,0-.25-.75,3,3,0,0,0-1-.87,5.43,5.43,0,0,0-3.13-.65,2.52,2.52,0,0,0-1.1.3,1,1,0,0,0-.56.89,1.59,1.59,0,0,0,.64,1.27,2.86,2.86,0,0,1,1.67-.72,5.85,5.85,0,0,1,2,.09C47.72,38.56,48.29,38.73,48.89,38.88Zm13.24.19a1.72,1.72,0,0,0,.6-1,1,1,0,0,0-.55-1.21,3,3,0,0,0-.5-.19,4.87,4.87,0,0,0-2-.05,4.34,4.34,0,0,0-2.25,1,.9.9,0,0,0-.19,1.15l.2-.06a9,9,0,0,1,2.12-.44A3.11,3.11,0,0,1,62.13,39.07ZM29.69,81.68s0,0,0,0l0,0s0,0,0,0A0,0,0,0,0,29.69,81.68Z"/><path class="cls-1" d="M0,54.14l.05,0c0,.3.05.61.06.92,0,.08-.06.09-.11,0Z"/><path class="cls-1" d="M105.5,50.16a.29.29,0,0,1,0-.36Z"/><path class="cls-1" d="M55.16,0a.16.16,0,0,1-.24,0Z"/><path class="cls-1" d="M50.7,0a.16.16,0,0,1-.24,0Z"/><path class="cls-1" d="M34.37,33.7l-.07-.07.15-.12,0,0Z"/><path class="cls-1" d="M52.8,18.3l1.67,1.27,3.6,2.74.14.11c.1.08.2.16.13.3s-.17.11-.29.09l-.68-.1a31.65,31.65,0,0,0-6.07-.31,34.78,34.78,0,0,0-3.68.4s-.11,0-.15,0-.19-.05-.22-.11,0-.16.06-.23.08-.07.12-.1l5.25-4Z"/><path class="cls-1" d="M38.24,24.27l0,.07,0,0Z"/><path class="cls-1" d="M48.64,49.26c.17-.3.24-.33.54-.28a19.19,19.19,0,0,0,3.3.29,19.72,19.72,0,0,0,4-.3c.24,0,.31,0,.5.3-.6.63-1.17,1.31-1.82,1.89a3.44,3.44,0,0,1-4.64.06,8.84,8.84,0,0,1-.69-.68Z"/><path class="cls-1" d="M52.79,47.15a3.13,3.13,0,0,1-1.28-.27c-.34-.13-.68-.25-1-.35a.45.45,0,0,1-.29-.34c0-.16.07-.23.17-.3a2.23,2.23,0,0,1,1.07-.43,1.46,1.46,0,0,1,.62.09,2.21,2.21,0,0,0,1.5,0,1.78,1.78,0,0,1,1.76.42c.19.13.08.47-.15.55L53.82,47A3,3,0,0,1,52.79,47.15Z"/></g></g></svg>