<svg xmlns="http://www.w3.org/2000/svg" viewBox="0 0 44.42 44.42"><defs><style>.cls-1{fill:#40513b;}</style></defs><g id="Camada_2" data-name="Camada 2"><g id="Camada_1-2" data-name="Camada 1"><path class="cls-1" d="M18.71,26.3l7-4.09-7-4.08Z"/><path class="cls-1" d="M22.21,0A22.21,22.21,0,1,0,44.42,22.21,22.21,22.21,0,0,0,22.21,0ZM35.79,27a5.05,5.05,0,0,1-4.88,4.94c-1.45.06-2.91,0-4.37,0H22.21v0c-2.9,0-5.8.06-8.7,0a5,5,0,0,1-4.88-5c0-3.14-.05-6.28,0-9.41a5.05,5.05,0,0,1,4.85-5c2.38-.07,4.76,0,7.15,0,3.42,0,6.84,0,10.26,0a5,5,0,0,1,4.9,5Q35.87,22.23,35.79,27Z"/></g></g></svg>